<?xml version="1.0" encoding="utf-8"?>
<!-- Generator: Adobe Illustrator 26.0.1, SVG Export Plug-In . SVG Version: 6.00 Build 0)  -->
<svg version="1.1" id="Ebene_1" xmlns="http://www.w3.org/2000/svg" xmlns:xlink="http://www.w3.org/1999/xlink" x="0px" y="0px"
	 viewBox="0 0 140 72" style="enable-background:new 0 0 140 72;" xml:space="preserve">
<style type="text/css">
	.st0{fill:#004289;}
	.st1{fill:#DD0B2F;}
</style>
<g>
	<path class="st0" d="M69.1-0.2c-21.1,0.3-40,5.4-53,13.5c12.3-5.8,28.4-9.4,46-9.6c39.1-0.4,70.9,16.4,71.2,37.4
		c0.1,9.8-6.8,18.9-18.2,25.8c15.3-7.2,25-17.7,24.9-29.4C139.7,16.3,107.9-0.5,69.1-0.2z"/>
	<g>
		<path class="st0" d="M40.3,48.1c0,2.1-0.3,4-0.9,5.7c-0.6,1.6-1.5,2.9-2.6,4c-1.1,1-2.5,1.9-4.2,2.4c-1.6,0.5-3.4,0.8-5.4,0.8
			s-4-0.3-6-0.9c-2-0.6-3.9-1.5-5.4-2.6l3.6-5.3c1.1,1,2.3,1.6,3.5,2.1s2.5,0.8,3.8,0.8c2.1,0,3.8-0.6,4.8-1.8
			c1-1.1,1.5-2.6,1.5-4.5v-1.4h-0.1c-0.6,0.9-1.6,1.6-2.8,2.1c-1.1,0.5-2.5,0.8-4,0.8c-1.8,0-3.3-0.3-4.5-0.9
			c-1.3-0.6-2.4-1.4-3.4-2.5c-0.9-1-1.6-2.3-2.1-3.6c-0.5-1.4-0.8-2.9-0.8-4.4s0.3-3,0.8-4.4c0.5-1.4,1.1-2.6,2.1-3.8
			c0.9-1.1,2-1.9,3.4-2.5c1.3-0.6,2.8-1,4.5-1c1.4,0,2.8,0.3,4,0.9c1.3,0.6,2.3,1.5,3.1,2.6h0.1v-2.9h6.9
			C40.3,27.8,40.3,48.1,40.3,48.1z M33.2,39c0-0.8-0.1-1.5-0.4-2.1c-0.3-0.6-0.6-1.3-1.1-1.8c-0.5-0.5-1-0.9-1.8-1.3
			c-0.5-0.4-1.3-0.5-2.1-0.5c-0.9,0-1.6,0.1-2.3,0.5c-0.6,0.3-1.1,0.8-1.6,1.3s-0.8,1.1-1,1.8c-0.3,0.6-0.4,1.4-0.4,2.1
			c0,0.8,0.1,1.5,0.4,2.1c0.3,0.6,0.6,1.3,1,1.8c0.5,0.5,1,0.9,1.6,1.3c0.6,0.3,1.4,0.5,2.3,0.5c0.9,0,1.6-0.1,2.3-0.5
			c0.6-0.3,1.3-0.8,1.8-1.3c0.5-0.5,0.9-1.1,1.1-1.8C33.1,40.5,33.2,39.7,33.2,39z"/>
		<path class="st0" d="M68.2,39.3c0,0.3,0,0.6,0,0.9s0,0.6,0,0.9H52c0,0.6,0.3,1.1,0.5,1.8c0.3,0.5,0.8,1,1.3,1.3
			c0.5,0.4,1,0.6,1.6,0.9c0.6,0.3,1.3,0.3,1.9,0.3c1.1,0,2.1-0.3,2.9-0.6c0.8-0.4,1.5-1,2-1.6l5.2,3.3c-1,1.5-2.4,2.6-4.2,3.5
			c-1.8,0.9-3.6,1.3-5.9,1.3c-1.6,0-3.3-0.3-4.8-0.8c-1.5-0.5-2.8-1.3-3.9-2.3s-2-2.3-2.6-3.6c-0.6-1.5-1-3.1-1-5
			c0-1.8,0.3-3.5,0.9-4.9c0.6-1.5,1.5-2.8,2.5-3.8c1.1-1,2.4-1.9,3.8-2.4c1.5-0.5,3-0.9,4.8-0.9c1.6,0,3.1,0.3,4.5,0.9
			c1.4,0.5,2.5,1.4,3.5,2.4c1,1,1.8,2.3,2.3,3.8C67.9,35.7,68.2,37.4,68.2,39.3z M61.4,36.6c0-1.1-0.4-2.1-1.1-3
			c-0.8-0.9-1.9-1.3-3.3-1.3c-0.8,0-1.4,0.1-2,0.4c-0.6,0.3-1.1,0.5-1.5,0.9c-0.5,0.4-0.8,0.9-1.1,1.4c-0.3,0.5-0.4,1-0.5,1.6
			C51.8,36.6,61.4,36.6,61.4,36.6z"/>
		<path class="st0" d="M87.8,21.9c-0.3-0.1-0.6-0.1-0.9-0.3c-0.3-0.1-0.8-0.1-1.1-0.1c-0.6,0-1.3,0.1-1.6,0.4c-0.4,0.3-0.8,0.5-1,1
			c-0.3,0.4-0.4,0.9-0.5,1.4c-0.1,0.5-0.1,1-0.1,1.5V28h4.9v5.4h-4.9v16.9h-7.3V33.4h-4V28h4v-2.3c0-1.4,0.1-2.6,0.5-3.9
			c0.3-1.3,0.8-2.3,1.5-3.3c0.8-0.9,1.8-1.6,2.9-2.3c1.3-0.5,2.8-0.9,4.7-0.9c0.6,0,1.3,0,1.9,0.1c0.6,0.1,1.1,0.1,1.6,0.4
			L87.8,21.9z"/>
		<path class="st0" d="M91.2,31c1.3-1.3,2.9-2.1,4.5-2.8c1.8-0.6,3.5-0.9,5.4-0.9c1.9,0,3.5,0.3,4.8,0.8c1.3,0.5,2.4,1.1,3.1,2.1
			c0.8,1,1.4,2.1,1.8,3.6s0.5,3.3,0.5,5.3v11.2h-6.7V48h-0.1c-0.6,0.9-1.4,1.6-2.5,2.1c-1.1,0.5-2.4,0.8-3.8,0.8
			c-0.9,0-1.8-0.1-2.8-0.4c-1-0.3-1.9-0.6-2.6-1.1c-0.8-0.5-1.4-1.3-1.9-2.1c-0.5-0.9-0.8-2-0.8-3.3c0-1.6,0.4-2.9,1.3-3.9
			c0.9-1,2-1.8,3.4-2.3c1.4-0.5,2.9-0.9,4.7-1.1c1.8-0.1,3.4-0.3,4.9-0.3v-0.4c0-1.1-0.4-1.9-1.1-2.4c-0.8-0.5-1.8-0.8-2.9-0.8
			c-1,0-2,0.3-3,0.6c-1,0.5-1.8,1-2.5,1.6L91.2,31z M104.7,40.5h-0.9c-0.8,0-1.6,0-2.4,0.1c-0.8,0.1-1.5,0.3-2.1,0.4
			c-0.6,0.3-1.1,0.5-1.6,0.9c-0.4,0.4-0.6,0.9-0.6,1.6c0,0.4,0.1,0.8,0.3,1.1c0.3,0.3,0.4,0.5,0.8,0.8c0.3,0.1,0.6,0.3,1,0.4
			c0.4,0.1,0.8,0.1,1.1,0.1c1.5,0,2.6-0.4,3.4-1.3c0.8-0.9,1.1-1.9,1.1-3.4V40.5z"/>
	</g>
	<path class="st1" d="M6.5,12.7c3.6,0,6.5,2.9,6.5,6.5c0,3.8-3,6.7-6.5,6.7c-3.6,0-6.5-3.1-6.5-6.7C-0.1,15.7,2.9,12.7,6.5,12.7z"/>
	<g>
		<path class="st0" d="M3.4,71.9l1.4-7.7h1.4l-1.4,7.7H3.4z"/>
		<path class="st0" d="M7.3,67.3c0-0.3,0-0.4,0.1-0.6h1.1c0,0.1,0,0.3,0,0.4c0,0.1,0,0.4,0,0.4l0,0c0.1-0.3,0.4-0.5,0.6-0.6
			c0.3-0.3,0.6-0.3,1-0.3c0.4,0,0.8,0.1,1,0.3c0.3,0.3,0.4,0.4,0.5,0.8c0.3-0.4,0.5-0.6,0.8-0.8c0.3-0.1,0.6-0.3,1-0.3
			c0.3,0,0.5,0,0.8,0.1c0.3,0.1,0.4,0.3,0.5,0.4s0.3,0.4,0.4,0.5s0.1,0.4,0.1,0.6c0,0.1,0,0.4,0,0.5l-0.6,3.3h-1.3l0.5-2.9
			c0-0.1,0-0.1,0-0.3c0-0.1,0-0.1,0-0.3c0-0.1,0-0.3,0-0.4s-0.1-0.3-0.1-0.3c-0.1-0.1-0.1-0.1-0.3-0.3c-0.1,0-0.3-0.1-0.4-0.1
			c-0.3,0-0.4,0-0.5,0.1s-0.3,0.3-0.4,0.4c-0.1,0.1-0.3,0.3-0.3,0.5c-0.1,0.1-0.1,0.4-0.1,0.5l-0.5,2.9h-1.3l0.5-3.1
			c0-0.1,0-0.3,0-0.3c0-0.3-0.1-0.5-0.3-0.6s-0.4-0.3-0.6-0.3s-0.4,0-0.5,0.1S8.9,68,8.8,68.1c-0.1,0.1-0.3,0.3-0.3,0.5
			c-0.1,0.1-0.1,0.4-0.1,0.5L7.9,72H6.7l0.8-4C7.3,67.6,7.3,67.5,7.3,67.3z"/>
		<path class="st0" d="M17,67.3c0-0.3,0-0.4,0.1-0.6h1.1c0,0.1,0,0.3,0,0.4c0,0.1,0,0.4,0,0.4l0,0c0.1-0.3,0.4-0.5,0.6-0.6
			c0.3-0.3,0.6-0.3,1-0.3c0.4,0,0.8,0.1,1,0.3c0.3,0.3,0.4,0.4,0.5,0.8c0.3-0.4,0.5-0.6,0.8-0.8c0.3-0.1,0.6-0.3,1-0.3
			c0.3,0,0.5,0,0.8,0.1c0.3,0.1,0.4,0.3,0.5,0.4s0.3,0.4,0.4,0.5c0.1,0.3,0.1,0.4,0.1,0.6c0,0.1,0,0.4,0,0.5l-0.5,3.3h-1.3l0.5-2.9
			c0-0.1,0-0.1,0-0.3c0-0.1,0-0.1,0-0.3c0-0.1,0-0.3,0-0.4s-0.1-0.3-0.1-0.3c-0.1-0.1-0.1-0.1-0.3-0.3c-0.1,0-0.3-0.1-0.4-0.1
			c-0.3,0-0.4,0-0.5,0.1S22.1,67.9,22,68c-0.1,0.1-0.3,0.3-0.3,0.5c-0.1,0.1-0.1,0.4-0.1,0.5l-0.5,2.9h-1.3l0.5-3.1
			c0-0.1,0-0.3,0-0.3c0-0.3-0.1-0.5-0.3-0.6s-0.4-0.3-0.6-0.3s-0.4,0-0.5,0.1s-0.3,0.3-0.4,0.4c-0.1,0.1-0.3,0.3-0.3,0.5
			c-0.1,0.1-0.1,0.4-0.1,0.5L17.7,72h-1.3l0.8-4C17,67.6,17,67.5,17,67.3z"/>
		<path class="st0" d="M27.2,69.6C27.2,69.6,27.2,69.8,27.2,69.6c0,0.3,0,0.5,0.1,0.6c0.1,0.1,0.1,0.3,0.3,0.4s0.3,0.1,0.4,0.3
			c0.1,0,0.4,0.1,0.5,0.1c0.4,0,0.6,0,0.9-0.1c0.3-0.1,0.5-0.3,0.6-0.5l0.8,0.6c-0.6,0.8-1.4,1-2.4,1c-0.4,0-0.6,0-1-0.1
			c-0.3-0.1-0.5-0.3-0.8-0.5c-0.3-0.3-0.4-0.4-0.5-0.8c-0.1-0.3-0.1-0.6-0.1-1c0-0.5,0.1-0.9,0.3-1.3c0.1-0.4,0.4-0.8,0.6-1
			s0.6-0.5,1-0.6c0.4-0.1,0.8-0.3,1.3-0.3c0.3,0,0.6,0,0.9,0.1c0.3,0.1,0.5,0.3,0.6,0.4c0.3,0.1,0.4,0.4,0.5,0.6
			c0.1,0.3,0.1,0.5,0.1,0.9c0,0.1,0,0.3,0,0.5s0,0.4-0.1,0.6C31.1,69.6,27.2,69.6,27.2,69.6z M30.1,68.8v-0.1v-0.1
			c0-0.3-0.1-0.5-0.3-0.8c-0.3-0.3-0.5-0.3-0.9-0.3c-0.3,0-0.4,0-0.6,0.1c-0.1,0.1-0.4,0.1-0.5,0.3s-0.3,0.3-0.4,0.4
			c-0.1,0.1-0.1,0.3-0.1,0.4h2.8V68.8z"/>
		<path class="st0" d="M34,67.5c0.1-0.3,0.4-0.5,0.6-0.8c0.3-0.1,0.5-0.3,0.9-0.3h0.1h0.1l0,1.3c-0.1,0-0.1,0-0.3,0h-0.1
			c-0.3,0-0.5,0-0.8,0.1c-0.1,0.1-0.4,0.3-0.5,0.4c-0.1,0.1-0.3,0.3-0.3,0.5c0,0.1-0.1,0.3-0.1,0.4l-0.5,2.8H32l0.8-4
			c0-0.1,0-0.4,0.1-0.5c0-0.3,0-0.4,0.1-0.6h1.1v0.1c0,0.1,0,0.1,0,0.3c0,0.1,0,0.1,0,0.3C34,67.4,34,67.5,34,67.5L34,67.5z"/>
		<path class="st0" d="M36.9,71c0,0.3-0.1,0.4-0.3,0.6c-0.1,0.1-0.4,0.3-0.6,0.3s-0.4-0.1-0.5-0.3c-0.1-0.1-0.3-0.4-0.3-0.6
			s0.1-0.4,0.3-0.6c0.1-0.1,0.4-0.3,0.6-0.3s0.4,0.1,0.5,0.3C36.7,70.7,36.9,70.8,36.9,71z"/>
		<path class="st0" d="M43,65.4l-0.4,2.1h3.3l-0.3,1.1h-3.3l-0.6,3.3h-1.4l1.4-7.7h4.8l-0.3,1.1C46.3,65.4,43,65.4,43,65.4z"/>
		<path class="st0" d="M49.7,71c-0.1,0.3-0.4,0.5-0.6,0.6c-0.3,0.1-0.6,0.3-1,0.3c-0.3,0-0.5,0-0.8-0.1c-0.3-0.1-0.4-0.3-0.5-0.4
			c-0.1-0.1-0.3-0.4-0.4-0.5c-0.1-0.3-0.1-0.4-0.1-0.6c0-0.1,0-0.4,0-0.5l0.6-3.3h1.3l-0.5,2.9c0,0.1,0,0.1,0,0.3c0,0.1,0,0.1,0,0.3
			c0,0.3,0,0.4,0.1,0.6c0.1,0.1,0.4,0.3,0.6,0.3s0.4,0,0.5-0.1c0.1-0.1,0.3-0.1,0.4-0.4c0.1-0.1,0.3-0.3,0.3-0.5
			c0.1-0.1,0.1-0.4,0.1-0.5l0.5-2.9h1.3l-0.8,4c0,0.1,0,0.4-0.1,0.5c0,0.3,0,0.4-0.1,0.6h-0.9c0-0.1,0-0.3,0-0.4
			C49.7,71.3,49.7,71.2,49.7,71L49.7,71z M49.2,64.9c0,0.3-0.1,0.4-0.3,0.5c-0.1,0.1-0.4,0.3-0.5,0.3c-0.3,0-0.4-0.1-0.5-0.3
			c-0.1-0.1-0.3-0.3-0.3-0.5c0-0.3,0.1-0.4,0.3-0.5c0.1-0.1,0.4-0.3,0.5-0.3c0.3,0,0.4,0.1,0.5,0.3C49.2,64.5,49.2,64.6,49.2,64.9z
			 M51.3,64.9c0,0.3-0.1,0.4-0.3,0.5c-0.1,0.1-0.4,0.3-0.5,0.3c-0.3,0-0.4-0.1-0.5-0.3c-0.1-0.1-0.3-0.3-0.3-0.5
			c0-0.3,0.1-0.4,0.3-0.5c0.1-0.1,0.4-0.3,0.5-0.3c0.1,0,0.4,0.1,0.5,0.3C51.3,64.5,51.3,64.6,51.3,64.9z"/>
		<path class="st0" d="M54.5,67.5c0.1-0.3,0.4-0.5,0.6-0.8c0.3-0.1,0.5-0.3,0.9-0.3h0.1h0.1l-0.1,1.1c-0.1,0-0.1,0-0.3,0h-0.1
			c-0.3,0-0.5,0-0.8,0.1c-0.1,0.1-0.4,0.3-0.5,0.4c-0.1,0.1-0.3,0.3-0.3,0.5c0,0.1-0.1,0.3-0.1,0.4l-0.5,2.8h-1.3l0.8-4
			c0-0.1,0-0.4,0.1-0.5c0-0.3,0-0.4,0.1-0.6h1.1v0.1c0,0.1,0,0.1,0,0.3c0,0.1,0,0.1,0,0.3S54.3,67.5,54.5,67.5L54.5,67.5z"/>
		<path class="st0" d="M56.6,70.4c0.1,0.3,0.3,0.4,0.5,0.5s0.5,0.1,0.8,0.1c0.3,0,0.5,0,0.8-0.1c0.1-0.1,0.3-0.3,0.3-0.5
			c0-0.1-0.1-0.4-0.3-0.4c-0.1-0.1-0.4-0.1-0.6-0.3c-0.3-0.1-0.5-0.1-0.6-0.3c-0.1-0.1-0.4-0.1-0.5-0.3c-0.1-0.1-0.3-0.3-0.3-0.4
			c0-0.1-0.1-0.4-0.1-0.5c0-0.3,0-0.5,0.1-0.8c0.1-0.3,0.3-0.4,0.5-0.5c0.3-0.1,0.5-0.3,0.8-0.4c0.3-0.1,0.6-0.1,0.9-0.1
			c0.4,0,0.8,0.1,1.1,0.3c0.4,0.1,0.6,0.4,0.8,0.6l-1,0.5c-0.1-0.1-0.3-0.3-0.4-0.4c-0.1-0.1-0.4-0.1-0.6-0.1c-0.1,0-0.3,0-0.4,0
			c-0.1,0-0.3,0-0.3,0.1c-0.1,0-0.1,0.1-0.3,0.3c0,0.1-0.1,0.1-0.1,0.3c0,0.1,0.1,0.3,0.3,0.4s0.4,0.1,0.6,0.3
			c0.5,0.1,0.9,0.4,1.1,0.5c0.3,0.3,0.4,0.6,0.4,1c0,0.3,0,0.5-0.1,0.8c-0.1,0.3-0.3,0.4-0.5,0.5c-0.3,0.1-0.5,0.3-0.8,0.4
			C58.4,72,58.1,72,57.7,72c-0.5,0-1-0.1-1.4-0.3c-0.4-0.3-0.6-0.5-0.8-0.8L56.6,70.4z"/>
		<path class="st0" d="M63.6,71.9l1.4-7.7h1.4l-1.1,6.5h3.3l-0.3,1.1H63.6z"/>
		<path class="st0" d="M70.3,69.6C70.3,69.6,70.3,69.8,70.3,69.6c0,0.3,0,0.5,0.1,0.6c0.1,0.1,0.1,0.3,0.3,0.4
			c0.1,0.1,0.3,0.1,0.4,0.3c0.1,0,0.4,0.1,0.5,0.1c0.4,0,0.6,0,0.9-0.1c0.3-0.1,0.5-0.3,0.6-0.5l0.8,0.6c-0.6,0.8-1.4,1-2.4,1
			c-0.4,0-0.6,0-1-0.1c-0.3-0.1-0.5-0.3-0.8-0.5c-0.3-0.3-0.4-0.4-0.5-0.8c-0.1-0.3-0.1-0.6-0.1-1c0-0.5,0.1-0.9,0.3-1.3
			c0.1-0.4,0.4-0.8,0.6-1s0.6-0.5,1-0.6c0.4-0.1,0.8-0.3,1.3-0.3c0.3,0,0.6,0,0.9,0.1c0.3,0.1,0.5,0.3,0.6,0.4
			c0.3,0.1,0.4,0.4,0.5,0.6s0.1,0.5,0.1,0.9c0,0.1,0,0.3,0,0.5s0,0.4-0.1,0.6C74.2,69.6,70.3,69.6,70.3,69.6z M73.1,68.8v-0.1v-0.1
			c0-0.3-0.1-0.5-0.3-0.8c-0.3-0.3-0.5-0.3-0.9-0.3c-0.3,0-0.4,0-0.6,0.1c-0.1,0.1-0.4,0.1-0.5,0.3s-0.3,0.3-0.4,0.4
			c-0.1,0.1-0.1,0.3-0.1,0.4h2.8V68.8z"/>
		<path class="st0" d="M77.1,67.5c0.3-0.3,0.5-0.5,0.8-0.8c0.4-0.1,0.6-0.3,1.1-0.3c0.4,0,0.6,0,0.9,0.1c0.3,0.1,0.5,0.3,0.8,0.5
			c0.3,0.3,0.4,0.4,0.5,0.8c0.1,0.3,0.1,0.6,0.1,0.9c0,0.5-0.1,0.9-0.3,1.3c-0.1,0.4-0.4,0.8-0.6,1c-0.3,0.3-0.5,0.5-0.9,0.8
			c-0.4,0.1-0.8,0.3-1.1,0.3s-0.8-0.1-1.1-0.3c-0.4-0.1-0.6-0.4-0.8-0.8l0,0l-0.1,0.9h-1.3l1.4-8.2h1.3L77.1,67.5L77.1,67.5z
			 M79.9,68.9c0-0.4-0.1-0.8-0.4-1c-0.3-0.3-0.5-0.4-1-0.4c-0.3,0-0.5,0-0.8,0.1c-0.3,0.1-0.4,0.3-0.6,0.5c-0.1,0.1-0.3,0.4-0.4,0.6
			s-0.1,0.5-0.1,0.8c0,0.4,0.1,0.8,0.4,1s0.5,0.4,1,0.4c0.3,0,0.5,0,0.8-0.1c0.3-0.1,0.4-0.3,0.5-0.4c0.1-0.1,0.3-0.4,0.4-0.6
			C79.9,69.4,79.9,69.1,79.9,68.9z"/>
		<path class="st0" d="M83.3,69.6C83.3,69.6,83.3,69.8,83.3,69.6c0,0.3,0,0.5,0.1,0.6c0.1,0.1,0.1,0.3,0.3,0.4s0.3,0.1,0.4,0.3
			c0.1,0,0.4,0.1,0.5,0.1c0.4,0,0.6,0,0.9-0.1c0.3-0.1,0.5-0.3,0.6-0.5l0.8,0.6c-0.6,0.8-1.4,1-2.4,1c-0.4,0-0.6,0-1-0.1
			c-0.3-0.1-0.5-0.3-0.8-0.5c-0.3-0.3-0.4-0.4-0.5-0.8C82,70.4,82,70,82,69.6c0-0.5,0.1-0.9,0.3-1.3c0.1-0.4,0.4-0.8,0.6-1
			c0.3-0.3,0.6-0.5,1-0.6c0.4-0.1,0.8-0.3,1.3-0.3c0.3,0,0.6,0,0.9,0.1c0.3,0.1,0.5,0.3,0.6,0.4c0.3,0.1,0.4,0.4,0.5,0.6
			s0.1,0.5,0.1,0.9c0,0.1,0,0.3,0,0.5s0,0.4-0.1,0.6C87.2,69.6,83.3,69.6,83.3,69.6z M86.2,68.8v-0.1v-0.1c0-0.3-0.1-0.5-0.3-0.8
			c-0.3-0.3-0.5-0.3-0.9-0.3c-0.3,0-0.4,0-0.6,0.1c-0.1,0.1-0.4,0.1-0.5,0.3c-0.1,0.1-0.3,0.3-0.4,0.4c-0.1,0.1-0.1,0.3-0.1,0.4h2.8
			V68.8z"/>
		<path class="st0" d="M90.1,67.5c0.1-0.3,0.4-0.5,0.6-0.6c0.3-0.1,0.6-0.3,1-0.3c0.3,0,0.5,0,0.8,0.1c0.3,0.1,0.4,0.3,0.5,0.4
			c0.1,0.1,0.3,0.4,0.3,0.5c0,0.1,0.1,0.4,0.1,0.6c0,0.1,0,0.4,0,0.5L92.7,72h-1.3l0.5-2.9c0-0.1,0-0.1,0-0.3c0-0.1,0-0.1,0-0.3
			c0-0.3,0-0.4-0.1-0.6c-0.1-0.1-0.4-0.3-0.6-0.3c-0.3,0-0.4,0-0.5,0.1c-0.1,0.1-0.3,0.1-0.4,0.4c-0.1,0.1-0.3,0.3-0.3,0.5
			c-0.1,0.1-0.1,0.4-0.1,0.5l-0.5,2.9h-1.3l0.8-4c0-0.1,0-0.4,0.1-0.5c0-0.3,0-0.4,0.1-0.6h1.1c0,0.1,0,0.3,0,0.4
			C90.2,67.1,90.1,67.4,90.1,67.5L90.1,67.5z"/>
		<path class="st0" d="M102.6,63.6h1.3l-1.5,8.3h-1.3l0.1-0.9l0,0c-0.3,0.3-0.5,0.5-0.8,0.8c-0.4,0.1-0.6,0.3-1.1,0.3
			c-0.4,0-0.6,0-0.9-0.1c-0.3-0.1-0.5-0.3-0.8-0.5c-0.3-0.3-0.4-0.4-0.5-0.8c-0.1-0.3-0.1-0.6-0.1-0.9c0-0.5,0.1-0.9,0.3-1.3
			c0.1-0.4,0.4-0.8,0.6-1c0.3-0.3,0.5-0.5,0.9-0.8c0.4-0.1,0.8-0.3,1.1-0.3c0.5,0,0.9,0.1,1.1,0.3c0.3,0.1,0.5,0.4,0.6,0.8l0,0
			L102.6,63.6z M98.5,69.6c0,0.4,0.1,0.8,0.4,1c0.3,0.3,0.5,0.4,1,0.4c0.3,0,0.5,0,0.8-0.1c0.3-0.1,0.4-0.3,0.6-0.5
			c0.1-0.1,0.3-0.4,0.4-0.6c0.1-0.3,0.1-0.5,0.1-0.8c0-0.4-0.1-0.8-0.4-1c-0.3-0.3-0.5-0.4-1-0.4c-0.3,0-0.5,0-0.8,0.1
			c-0.3,0.1-0.4,0.3-0.5,0.4c-0.1,0.1-0.3,0.4-0.4,0.6C98.6,69,98.5,69.3,98.5,69.6z"/>
		<path class="st0" d="M107.7,68.5c0-0.1,0-0.1,0-0.3v-0.1c0-0.3-0.1-0.4-0.3-0.5c-0.1-0.1-0.4-0.1-0.8-0.1c-0.3,0-0.5,0-0.8,0.1
			c-0.3,0.1-0.5,0.3-0.8,0.4l-0.5-0.9c0.3-0.3,0.6-0.4,1-0.5c0.4-0.1,0.8-0.1,1.1-0.1c0.3,0,0.5,0,0.8,0.1c0.3,0,0.5,0.1,0.6,0.3
			c0.3,0.1,0.4,0.3,0.5,0.5s0.1,0.5,0.1,0.8c0,0.1,0,0.1,0,0.3c0,0.1,0,0.1,0,0.3l-0.4,2.1c0,0.3-0.1,0.4-0.1,0.6c0,0.3,0,0.4,0,0.5
			h-1.1c0-0.3,0-0.4,0.1-0.6l0,0c-0.4,0.5-1,0.8-1.6,0.8c-0.1,0-0.4,0-0.5-0.1c-0.3,0-0.4-0.1-0.5-0.3c-0.1-0.1-0.3-0.3-0.4-0.4
			c-0.1-0.1-0.1-0.4-0.1-0.6c0-0.4,0.1-0.8,0.4-1s0.5-0.5,0.9-0.6c0.4-0.1,0.8-0.3,1.3-0.3C106.8,68.6,107.3,68.5,107.7,68.5z
			 M107.4,69.5c-0.3,0-0.5,0-0.8,0c-0.3,0-0.5,0-0.8,0.1c-0.3,0.1-0.4,0.1-0.5,0.3c-0.1,0.1-0.3,0.3-0.3,0.5c0,0.1,0,0.3,0.1,0.3
			c0,0.1,0.1,0.1,0.3,0.3c0.1,0,0.1,0.1,0.3,0.1s0.3,0,0.4,0c0.3,0,0.4,0,0.5-0.1c0.1-0.1,0.4-0.1,0.5-0.3s0.3-0.3,0.4-0.4
			c0.1-0.1,0.1-0.3,0.1-0.5l0.1-0.4h-0.4V69.5z"/>
		<path class="st0" d="M111.3,71c0,0.3-0.1,0.4-0.3,0.6c-0.1,0.1-0.4,0.3-0.6,0.3c-0.3,0-0.4-0.1-0.5-0.3c-0.1-0.1-0.3-0.4-0.3-0.6
			s0.1-0.4,0.3-0.6c0.1-0.1,0.4-0.3,0.6-0.3c0.3,0,0.4,0.1,0.5,0.3C111.3,70.7,111.3,70.8,111.3,71z"/>
	</g>
	<path class="st0" d="M6.5,29.5c-1.3,0-2.5-0.3-3.6-0.8v21.4h7.3V28.6C9.1,29.3,7.8,29.5,6.5,29.5z"/>
</g>
</svg>
